<?xml version="1.0" standalone="no"?><!DOCTYPE svg PUBLIC "-//W3C//DTD SVG 1.1//EN" "http://www.w3.org/Graphics/SVG/1.1/DTD/svg11.dtd"><svg t="1554864754082" class="icon" style="" viewBox="0 0 1024 1024" version="1.1" xmlns="http://www.w3.org/2000/svg" p-id="2716" xmlns:xlink="http://www.w3.org/1999/xlink" width="64" height="64"><defs><style type="text/css"></style></defs><path d="M84.730596 711.082667A93.098667 93.098667 0 0 1 170.746596 654.222222h62.008888a46.364444 46.364444 0 0 1 46.535112 46.222222 46.364444 46.364444 0 0 1-46.535112 46.222223H170.718151l-77.596444 184.888889h837.802666l-77.596444-184.888889h-62.037333c-16.64 0-32-8.817778-40.305778-23.096889a45.937778 45.937778 0 0 1 0-46.250667A46.592 46.592 0 0 1 791.290596 654.222222h62.037333c37.603556 0 71.509333 22.414222 85.987555 56.860445l77.539556 184.888889a91.875556 91.875556 0 0 1-8.448 86.840888A93.269333 93.269333 0 0 1 930.924373 1024H93.121707a93.269333 93.269333 0 0 1-77.482667-41.187556A91.875556 91.875556 0 0 1 7.19104 896l77.596444-184.888889h-0.056888z" fill="#1296db" p-id="2717"></path><path d="M526.245262 92.814222c-127.146667 0-233.642667 107.491556-233.642666 244.252445 0 52.423111 15.729778 100.693333 42.382222 140.288 25.088 37.319111 82.375111 120.035556 133.632 193.763555l57.628444 82.744889c16.298667-23.352889 36.437333-52.252444 57.628445-82.773333a21197.312 21197.312 0 0 0 133.632-193.735111 250.311111 250.311111 0 0 0 42.382222-140.288c0-136.760889-106.496-244.252444-233.642667-244.252445z m0 742.542222l-38.4 26.453334v-0.056889l-28.842666-41.301333-67.299556-96.568889a21212.16 21212.16 0 0 1-134.428444-194.929778A342.897778 342.897778 0 0 1 199.134151 337.066667C199.134151 152.832 343.717262 0 526.245262 0S853.356373 152.832 853.356373 337.066667c0.199111 68.266667-20.053333 135.054222-58.140444 191.886222a21191.395556 21191.395556 0 0 1-134.428445 194.929778l-67.299555 96.568889-28.842667 41.301333v0.056889l-38.4-26.453334z m0 0l38.4 26.453334c-8.704 12.515556-23.068444 19.968-38.4 19.968a46.819556 46.819556 0 0 1-38.4-19.968l38.4-26.453334z" fill="#1296db" p-id="2718"></path><path d="M512.02304 265.472a47.416889 47.416889 0 1 0 0 94.833778 47.416889 47.416889 0 0 0 0-94.833778zM369.800818 312.888889a142.222222 142.222222 0 1 1 284.444444 0 142.222222 142.222222 0 0 1-284.444444 0z" fill="#1296db" p-id="2719"></path></svg>